<svg width="38" height="34" viewBox="0 0 38 34" fill="none" xmlns="http://www.w3.org/2000/svg">
<path d="M16.4 21.74C16.49 21.58 16.54 21.32 16.54 21.06H6.6C5.55 21.06 4.69 20.2 4.69 19.15V6.73C4.69 5.68 5.55 4.82 6.6 4.82H21.88C22.93 4.82 23.35 5.56 22.82 6.47L20.14 11.03H24.57L26.11 8.41C27.06 6.79 27.12 4.92 26.26 3.41C25.4 1.9 23.76 1 21.88 1H6.6C3.44 1 0.869995 3.57 0.869995 6.73V19.15C0.869995 22.31 3.44 24.88 6.6 24.88H14.55L16.4 21.74Z" fill="#17CDE5"/>
<path d="M31.43 12.94C32.48 12.94 33.34 13.8 33.34 14.85V27.27C33.34 28.32 32.48 29.18 31.43 29.18H16.15C15.1 29.18 14.68 28.44 15.21 27.53L18.05 22.7C18.58 21.79 18.58 20.31 18.05 19.41L15.21 14.58C14.68 13.67 15.1 12.93 16.15 12.93H31.43M31.43 9.11H16.15C14.27 9.11 12.63 10.01 11.77 11.52C10.91 13.03 10.96 14.9 11.92 16.52L14.59 21.06L11.92 25.6C10.97 27.22 10.91 29.09 11.77 30.6C12.63 32.11 14.27 33.01 16.15 33.01H31.43C34.59 33.01 37.16 30.44 37.16 27.28V14.86C37.16 11.7 34.59 9.13 31.43 9.13V9.11Z" fill="#FF66E2"/>
</svg>
