<svg width="156" height="34" viewBox="0 0 156 34" fill="none" xmlns="http://www.w3.org/2000/svg">
<path d="M16.4 21.74C16.49 21.58 16.54 21.32 16.54 21.06H6.6C5.55 21.06 4.69 20.2 4.69 19.15V6.73C4.69 5.68 5.55 4.82 6.6 4.82H21.88C22.93 4.82 23.35 5.56 22.82 6.47L20.14 11.03H24.57L26.11 8.41C27.06 6.79 27.12 4.92 26.26 3.41C25.4 1.9 23.76 1 21.88 1H6.6C3.44 1 0.869995 3.57 0.869995 6.73V19.15C0.869995 22.31 3.44 24.88 6.6 24.88H14.55L16.4 21.74Z" fill="#17CDE5"/>
<path d="M31.43 12.94C32.48 12.94 33.34 13.8 33.34 14.85V27.27C33.34 28.32 32.48 29.18 31.43 29.18H16.15C15.1 29.18 14.68 28.44 15.21 27.53L18.05 22.7C18.58 21.79 18.58 20.31 18.05 19.41L15.21 14.58C14.68 13.67 15.1 12.93 16.15 12.93H31.43M31.43 9.11H16.15C14.27 9.11 12.63 10.01 11.77 11.52C10.91 13.03 10.96 14.9 11.92 16.52L14.59 21.06L11.92 25.6C10.97 27.22 10.91 29.09 11.77 30.6C12.63 32.11 14.27 33.01 16.15 33.01H31.43C34.59 33.01 37.16 30.44 37.16 27.28V14.86C37.16 11.7 34.59 9.13 31.43 9.13V9.11Z" fill="#FF66E2"/>
<path d="M74.77 12.7H72.15C71.8186 12.7 71.55 12.9686 71.55 13.3V26.43C71.55 26.7614 71.8186 27.03 72.15 27.03H74.77C75.1014 27.03 75.37 26.7614 75.37 26.43V13.3C75.37 12.9686 75.1014 12.7 74.77 12.7Z" fill="#17CDE5"/>
<path d="M74.77 6.97H72.15C71.8186 6.97 71.55 7.23863 71.55 7.57V9.71C71.55 10.0414 71.8186 10.31 72.15 10.31H74.77C75.1014 10.31 75.37 10.0414 75.37 9.71V7.57C75.37 7.23863 75.1014 6.97 74.77 6.97Z" fill="#17CDE5"/>
<path d="M101.52 12.7H98.9C98.5686 12.7 98.3 12.9686 98.3 13.3V26.43C98.3 26.7614 98.5686 27.03 98.9 27.03H101.52C101.851 27.03 102.12 26.7614 102.12 26.43V13.3C102.12 12.9686 101.851 12.7 101.52 12.7Z" fill="#17CDE5"/>
<path d="M101.52 6.97H98.9C98.5686 6.97 98.3 7.23863 98.3 7.57V9.71C98.3 10.0414 98.5686 10.31 98.9 10.31H101.52C101.851 10.31 102.12 10.0414 102.12 9.71V7.57C102.12 7.23863 101.851 6.97 101.52 6.97Z" fill="#17CDE5"/>
<path d="M46.84 12.7C46.51 12.7 46.24 12.97 46.24 13.3V26.43C46.24 26.76 46.51 27.03 46.84 27.03H49.47C49.8 27.03 50.07 26.76 50.07 26.43V16.52C50.07 16.26 50.28 16.04 50.55 16.04H54.37C54.63 16.04 54.85 16.25 54.85 16.52V26.43C54.85 26.76 55.12 27.03 55.45 27.03H58.08C58.41 27.03 58.68 26.76 58.68 26.43V16.52C58.68 16.26 58.89 16.04 59.16 16.04H62.98C63.24 16.04 63.46 16.25 63.46 16.52V26.43C63.46 26.76 63.73 27.03 64.06 27.03H66.69C67.02 27.03 67.29 26.76 67.29 26.43V13.3C67.29 12.97 67.02 12.7 66.69 12.7H46.87H46.84Z" fill="#17CDE5"/>
<path d="M80.27 12.7C79.94 12.7 79.67 12.97 79.67 13.3V26.43C79.67 26.76 79.94 27.03 80.27 27.03H82.9C83.23 27.03 83.5 26.76 83.5 26.43V16.52C83.5 16.26 83.71 16.04 83.98 16.04H89.71C89.97 16.04 90.19 16.25 90.19 16.52V26.43C90.19 26.76 90.46 27.03 90.79 27.03H93.42C93.75 27.03 94.02 26.76 94.02 26.43V13.3C94.02 12.97 93.75 12.7 93.42 12.7H80.29H80.27Z" fill="#17CDE5"/>
<path d="M120.75 15.45V13.3C120.75 12.97 120.48 12.7 120.15 12.7H107.02C106.69 12.7 106.42 12.97 106.42 13.3V20.94C106.42 21.27 106.69 21.54 107.02 21.54H116.45C116.71 21.54 116.93 21.75 116.93 22.02V23.21C116.93 23.47 116.72 23.69 116.45 23.69H107.02C106.69 23.69 106.42 23.96 106.42 24.29V26.44C106.42 26.77 106.69 27.04 107.02 27.04H120.15C120.48 27.04 120.75 26.77 120.75 26.44V18.8C120.75 18.47 120.48 18.2 120.15 18.2H110.72C110.46 18.2 110.24 17.99 110.24 17.72V16.53C110.24 16.27 110.45 16.05 110.72 16.05H120.15C120.48 16.05 120.75 15.78 120.75 15.45Z" fill="#17CDE5"/>
<path d="M137.94 15.45V13.3C137.94 12.97 137.67 12.7 137.34 12.7H131.73C131.47 12.7 131.25 12.49 131.25 12.22V8.52C131.25 8.19 130.98 7.92 130.65 7.92H128.02C127.69 7.92 127.42 8.19 127.42 8.52V12.22C127.42 12.48 127.21 12.7 126.94 12.7H124.19C123.86 12.7 123.59 12.97 123.59 13.3V15.45C123.59 15.78 123.86 16.05 124.19 16.05H126.94C127.2 16.05 127.42 16.26 127.42 16.53V26.44C127.42 26.77 127.69 27.04 128.02 27.04H136.38C136.71 27.04 136.98 26.77 136.98 26.44V24.29C136.98 23.96 136.71 23.69 136.38 23.69H131.72C131.46 23.69 131.24 23.48 131.24 23.21V16.52C131.24 16.26 131.45 16.04 131.72 16.04H137.33C137.66 16.04 137.93 15.77 137.93 15.44L137.94 15.45Z" fill="#17CDE5"/>
<path d="M141.4 12.7C141.07 12.7 140.8 12.97 140.8 13.3V15.45C140.8 15.78 141.07 16.05 141.4 16.05H150.83C151.09 16.05 151.31 16.26 151.31 16.53V17.72C151.31 17.98 151.1 18.2 150.83 18.2H141.4C141.07 18.2 140.8 18.47 140.8 18.8V26.44C140.8 26.77 141.07 27.04 141.4 27.04H154.53C154.86 27.04 155.13 26.77 155.13 26.44V13.31C155.13 12.98 154.86 12.71 154.53 12.71H141.4V12.7ZM150.83 23.69H145.1C144.84 23.69 144.62 23.48 144.62 23.21V22.02C144.62 21.76 144.83 21.54 145.1 21.54H150.83C151.09 21.54 151.31 21.75 151.31 22.02V23.21C151.31 23.47 151.1 23.69 150.83 23.69Z" fill="#17CDE5"/>
</svg>
