<svg width="36" height="36" viewBox="0 0 36 36" fill="none" xmlns="http://www.w3.org/2000/svg">
<path d="M25.0438 24.7573C27.0907 24.3923 28 23.1563 28 21.6877C28 19.9319 26.0796 18.5086 23.7106 18.5086M22.7172 14.9661C23.7114 14.9661 24.5173 14.1102 24.5173 13.0545C24.5173 11.9987 23.7114 11.1429 22.7172 11.1429C21.7231 11.1429 20.9172 11.9987 20.9172 13.0545C20.9172 14.1102 21.7231 14.9661 22.7172 14.9661ZM20.9172 22.5714C20.9172 24.465 18.0256 26 14.4586 26C10.8916 26 8 24.465 8 22.5714C8 20.6779 10.8916 19.1429 14.4586 19.1429C18.0256 19.1429 20.9172 20.6779 20.9172 22.5714ZM16.8435 12.8571C16.8435 14.4351 15.6387 15.7143 14.1525 15.7143C12.6662 15.7143 11.4614 14.4351 11.4614 12.8571C11.4614 11.2792 12.6662 10 14.1525 10C15.6387 10 16.8435 11.2792 16.8435 12.8571Z" stroke="#A9B2BB" stroke-width="2" stroke-linecap="round" stroke-linejoin="round"/>
</svg>
