<svg width="433" height="172" viewBox="0 0 433 172" fill="none" xmlns="http://www.w3.org/2000/svg">
<path d="M250.08 112L236.704 64.32H243.296L254.496 106.304H252.96L264.608 64.32H271.2L282.784 106.304H281.184L292.448 64.32H299.04L285.664 112H278.688L267.04 70.208H268.704L257.056 112H250.08ZM295.972 112L313.06 64.32H320.484L337.572 112H330.852L326.948 100.8H306.596L302.692 112H295.972ZM308.58 95.04H324.964L315.876 68.864H317.668L308.58 95.04ZM361.738 112.768C358.367 112.768 355.253 112.171 352.394 110.976C349.535 109.739 347.061 108.011 344.97 105.792C342.879 103.573 341.237 100.971 340.042 97.984C338.89 94.9973 338.314 91.7333 338.314 88.192C338.314 84.608 338.89 81.3227 340.042 78.336C341.194 75.3493 342.815 72.7467 344.906 70.528C346.997 68.3093 349.471 66.6027 352.33 65.408C355.189 64.1707 358.303 63.552 361.674 63.552C364.959 63.552 367.903 64.128 370.506 65.28C373.151 66.432 375.37 67.9253 377.162 69.76C378.997 71.5947 380.298 73.5573 381.066 75.648L375.434 78.4C374.325 75.6267 372.597 73.4293 370.25 71.808C367.903 70.1867 365.045 69.376 361.674 69.376C358.346 69.376 355.381 70.1653 352.778 71.744C350.218 73.3227 348.213 75.52 346.762 78.336C345.311 81.152 344.586 84.4373 344.586 88.192C344.586 91.904 345.311 95.168 346.762 97.984C348.255 100.8 350.282 102.997 352.842 104.576C355.445 106.155 358.41 106.944 361.738 106.944C364.639 106.944 367.263 106.325 369.61 105.088C371.957 103.851 373.813 102.144 375.178 99.968C376.543 97.792 377.226 95.2747 377.226 92.416V89.472L380.106 92.16H361.674V86.72H383.562V90.944C383.562 94.272 382.986 97.28 381.834 99.968C380.682 102.656 379.103 104.96 377.098 106.88C375.093 108.757 372.767 110.208 370.122 111.232C367.477 112.256 364.682 112.768 361.738 112.768ZM406.499 112.768C403.469 112.768 400.696 112.213 398.179 111.104C395.661 109.952 393.528 108.395 391.779 106.432C390.029 104.469 388.771 102.272 388.003 99.84L393.443 97.6C394.595 100.672 396.301 103.04 398.563 104.704C400.867 106.325 403.555 107.136 406.627 107.136C408.504 107.136 410.147 106.837 411.555 106.24C412.963 105.643 414.051 104.811 414.819 103.744C415.629 102.635 416.035 101.355 416.035 99.904C416.035 97.8987 415.459 96.32 414.307 95.168C413.197 93.9733 411.555 93.0773 409.379 92.48L400.611 89.792C397.155 88.7253 394.509 87.04 392.675 84.736C390.84 82.432 389.923 79.7867 389.923 76.8C389.923 74.1973 390.541 71.9147 391.779 69.952C393.059 67.9467 394.808 66.3893 397.027 65.28C399.288 64.128 401.848 63.552 404.707 63.552C407.565 63.552 410.147 64.064 412.451 65.088C414.797 66.112 416.781 67.4987 418.403 69.248C420.024 70.9547 421.219 72.9173 421.987 75.136L416.611 77.376C415.587 74.688 414.051 72.6613 412.003 71.296C409.955 69.888 407.544 69.184 404.771 69.184C403.064 69.184 401.549 69.4827 400.227 70.08C398.947 70.6347 397.944 71.4667 397.219 72.576C396.536 73.6427 396.195 74.9227 396.195 76.416C396.195 78.1653 396.749 79.7227 397.859 81.088C398.968 82.4533 400.653 83.4987 402.915 84.224L410.915 86.592C414.669 87.744 417.507 89.3867 419.427 91.52C421.347 93.6533 422.307 96.2987 422.307 99.456C422.307 102.059 421.624 104.363 420.259 106.368C418.936 108.373 417.08 109.952 414.691 111.104C412.344 112.213 409.613 112.768 406.499 112.768Z" fill="#302EC8"/>
<g clip-path="url(#clip0_40000009_2444)">
<path d="M0.0310543 46.9091C0.234327 44.8294 1.6416 41.4832 1.59469 39.0909L53.7262 62.3891C57.4164 64.2967 59.1677 67.8774 57.4633 71.9116C55.3211 76.9778 30.9286 82.2629 25.8311 86.3909C33.0864 90.7065 49.4106 93.3334 55.4931 98.1494C58.464 100.495 58.7299 104.889 56.6502 107.844L1.96995 133.675C1.54777 131.173 0.234312 127.405 0.0154027 125.075V123.512L43.0155 103.2L8.66236 90.2531C5.76963 87.9232 6.08228 84.5927 8.38082 82.0283C18.4975 77.2905 31.3038 74.5854 41.0922 69.5974C41.8271 69.2222 42.9529 69.1127 43.0155 68.0182L0.0154027 48.4571C0.0466755 47.9411 -0.0315063 47.4094 0.0154027 46.8934L0.0310543 46.9091Z" fill="#4000FF"/>
<path d="M172.016 46.9091V50.0364L129.015 69.9728L162.399 82.7164C166.684 84.9055 166.574 89.3462 162.571 91.8168C155.066 96.4451 140.086 99.4629 131.345 103.591C130.751 103.872 128.546 104.936 129 105.545L171.077 124.45C171.812 125.638 170.859 133.159 169.655 134.113L117.773 110.924C113.473 108.251 112.707 102.872 116.287 99.2909L146.184 87.1884L116.522 75.4298C113.489 73.1313 113.223 68.0808 115.693 65.2818L170.077 39.9353L172 46.9404L172.016 46.9091Z" fill="#4000FF"/>
<path d="M86.0309 146.2L98.1958 116.553C101.073 112.207 107.953 113.254 110.064 117.867L133.691 169.279C133.628 170.64 124.418 172.344 123.152 170.452L104.779 129.016L103.043 130.001L90.628 162.931C89.2207 164.995 85.8589 165.636 83.6854 164.588L68.4556 129.016L49.176 171.109L39.1375 170.452L62.4355 118.305C76.43 100.98 81.1524 138.007 86.0622 146.216L86.0309 146.2Z" fill="#4000FF"/>
<path d="M49.1602 0.906907L68.0648 43C70.0975 43.3753 69.2686 42.7186 69.6908 41.8898C75.0541 31.3666 77.1338 17.4189 83.6855 7.42729C86.0309 6.28584 89.7679 7.11459 90.8937 9.60078L103.231 43.7818L123.152 1.56365C124.309 -0.312707 133.628 1.36038 133.69 2.73638L110.064 54.1487C107.249 58.996 101.808 60.2157 98.1959 55.4778L86.0466 25.8157L75.2417 54.4927C72.5522 59.8717 65.4691 59.1524 62.7015 54.2269L39.1686 2.70512C38.8715 1.03204 39.4188 1.81382 40.2788 1.548C41.9519 1.032 48.0033 0.172014 49.1917 0.922559L49.1602 0.906907Z" fill="#4000FF"/>
<path d="M84.5453 49.0336C85.066 47.7137 86.934 47.7137 87.4547 49.0336L97.2497 73.8695C97.4086 74.2724 97.7276 74.5914 98.1305 74.7503L122.966 84.5453C124.286 85.066 124.286 86.934 122.966 87.4547L98.1305 97.2497C97.7276 97.4086 97.4086 97.7276 97.2497 98.1305L87.4547 122.966C86.934 124.286 85.066 124.286 84.5453 122.966L74.7503 98.1305C74.5914 97.7276 74.2724 97.4086 73.8695 97.2497L49.0336 87.4547C47.7137 86.934 47.7137 85.066 49.0336 84.5453L73.8695 74.7503C74.2724 74.5914 74.5914 74.2724 74.7503 73.8695L84.5453 49.0336Z" fill="#FEDC19"/>
</g>
<defs>
<clipPath id="clip0_40000009_2444">
<rect width="172" height="172" fill="white"/>
</clipPath>
</defs>
</svg>
