<svg width="110" height="110" viewBox="0 0 110 110" fill="none" xmlns="http://www.w3.org/2000/svg">
<path d="M0.0198603 30C0.14986 28.67 1.04986 26.53 1.01986 25L34.3598 39.9C36.7198 41.12 37.8398 43.41 36.7498 45.99C35.3798 49.23 19.7799 52.61 16.5199 55.25C21.1599 58.01 31.5998 59.69 35.4898 62.77C37.3898 64.27 37.5598 67.08 36.2298 68.97L1.25985 85.49C0.989851 83.89 0.149851 81.48 0.00985058 79.99V78.99L27.5099 66L5.53988 57.72C3.68988 56.23 3.88983 54.1 5.35983 52.46C11.8298 49.43 20.0199 47.7 26.2799 44.51C26.7499 44.27 27.4699 44.2 27.5099 43.5L0.00985058 30.99C0.0298506 30.66 -0.0201494 30.32 0.00985058 29.99L0.0198603 30Z" fill="white"/>
<path d="M110.01 30V32L82.5099 44.75L103.86 52.9C106.6 54.3 106.53 57.14 103.97 58.72C99.1699 61.68 89.5899 63.61 83.9999 66.25C83.6199 66.43 82.2099 67.11 82.4999 67.5L109.41 79.59C109.88 80.35 109.27 85.16 108.5 85.77L75.3199 70.94C72.5699 69.23 72.0799 65.79 74.3699 63.5L93.4899 55.76L74.5199 48.24C72.5799 46.77 72.4099 43.54 73.9899 41.75L108.77 25.54L110 30.02L110.01 30Z" fill="white"/>
<path d="M55.0198 93.5L62.7997 74.54C64.6397 71.76 69.0398 72.43 70.3898 75.38L85.4998 108.26C85.4598 109.13 79.5698 110.22 78.7598 109.01L67.0098 82.51L65.8998 83.14L57.9598 104.2C57.0598 105.52 54.9098 105.93 53.5198 105.26L43.7798 82.51L31.4498 109.43L25.0298 109.01L39.9297 75.66C48.8797 64.58 51.8998 88.26 55.0398 93.51L55.0198 93.5Z" fill="white"/>
<path d="M31.4397 0.579988L43.5298 27.5C44.8298 27.74 44.2997 27.32 44.5697 26.79C47.9997 20.06 49.3298 11.14 53.5198 4.75C55.0198 4.02 57.4097 4.55002 58.1297 6.14002L66.0198 28L78.7597 1C79.4997 -0.199998 85.4597 0.870002 85.4997 1.75L70.3897 34.63C68.5897 37.73 65.1097 38.51 62.7997 35.48L55.0298 16.51L48.1197 34.85C46.3997 38.29 41.8698 37.83 40.0998 34.68L25.0497 1.73001C24.8597 0.660013 25.2097 1.15999 25.7597 0.989992C26.8297 0.659992 30.6998 0.109998 31.4598 0.589998L31.4397 0.579988Z" fill="white"/>
<path d="M54.0697 31.3587C54.4027 30.5146 55.5973 30.5146 55.9303 31.3587L62.1946 47.2421C62.2962 47.4998 62.5002 47.7038 62.7579 47.8054L78.6413 54.0697C79.4854 54.4027 79.4854 55.5973 78.6413 55.9303L62.7579 62.1946C62.5002 62.2962 62.2962 62.5002 62.1946 62.7579L55.9303 78.6413C55.5973 79.4854 54.4027 79.4854 54.0697 78.6413L47.8054 62.7579C47.7038 62.5002 47.4998 62.2962 47.2421 62.1946L31.3587 55.9303C30.5146 55.5973 30.5146 54.4027 31.3587 54.0697L47.2421 47.8054C47.4998 47.7038 47.7038 47.4998 47.8054 47.2421L54.0697 31.3587Z" fill="#FEDC19"/>
</svg>
